<?xml version="1.0" encoding="UTF-8"?>
<svg width="17px" height="17px" viewBox="0 0 17 17" version="1.1" xmlns="http://www.w3.org/2000/svg" xmlns:xlink="http://www.w3.org/1999/xlink">
    <!-- Generator: sketchtool 64 (101010) - https://sketch.com -->
    <title>58A7A17B-286E-4BD0-81E4-67D8C3908565</title>
    <desc>Created with sketchtool.</desc>
    <g id="Desktop-Design" stroke="none" stroke-width="1" fill="none" fill-rule="evenodd">
        <g id="By-Province-Zoom" transform="translate(-1202.000000, -267.000000)" fill="#000000" stroke="#FFFFFF">
            <g id="Group-11" transform="translate(1046.000000, 200.000000)">
                <g id="Group-10" transform="translate(17.000000, 57.000000)">
                    <g id="master/icon/white/people" transform="translate(140.000000, 11.000000)">
                        <g id="master/icon/people">
                            <g id="Group-16">
                                <path d="M9.32539434,6.66666667 C8.86522752,6.66666667 8.49134199,6.29421915 8.49134199,5.83405234 C8.49134199,5.37388553 8.86522752,5 9.32539434,5 C9.78556115,5 10.1580087,5.37388553 10.1580087,5.83405234 C10.1580087,6.29421915 9.78556115,6.66666667 9.32539434,6.66666667 L9.32539434,6.66666667 Z M5.99134199,6.66666667 C5.53157188,6.66666667 5.15800866,6.29421915 5.15800866,5.83405234 C5.15800866,5.37388553 5.53157188,5 5.99134199,5 C6.45111211,5 6.82467532,5.37388553 6.82467532,5.83405234 C6.82467532,6.29421915 6.45111211,6.66666667 5.99134199,6.66666667 L5.99134199,6.66666667 Z M15.1580087,6.42081088 L14.0546519,6.42081088 C13.5999508,2.7970144 10.9089934,0 7.65800866,0 C4.40830837,0 1.71735101,2.7970144 1.26264986,6.42081088 L0.158008658,6.42081088 L0.158008658,8.57786415 L1.26264986,8.57786415 C1.71735101,12.2029856 4.40830837,15 7.65800866,15 C10.9089934,15 13.5999508,12.2029856 14.0546519,8.57786415 L15.1580087,8.57786415 L15.1580087,6.42081088 Z" id="Fill-22-Copy"></path>
                            </g>
                        </g>
                    </g>
                </g>
            </g>
        </g>
    </g>
</svg>